<svg width="128" height="128" viewBox="0 0 128 128" fill="none" xmlns="http://www.w3.org/2000/svg">
<rect width="128" height="128" rx="20" fill="#62DAFC"/>
<path d="M95.6797 48.1656C94.625 47.804 93.5703 47.4625 92.5156 47.1411C92.6914 46.3978 92.8477 45.6545 93.0039 44.9113C95.4062 32.9387 93.8242 23.3165 88.4922 20.1425C83.3555 17.1092 74.9766 20.263 66.5 27.8564C65.6602 28.5997 64.8398 29.3831 64.0586 30.1665C63.5312 29.6442 62.9844 29.1219 62.4375 28.6197C53.5508 20.5041 44.6445 17.0891 39.3125 20.2831C34.1953 23.3365 32.6719 32.3963 34.8203 43.7261C35.0352 44.851 35.2695 45.9559 35.543 47.0808C34.293 47.4424 33.0625 47.8442 31.9102 48.266C21.4805 51.9823 14 57.8481 14 63.9147C14 70.1823 21.9688 76.4699 32.8086 80.2866C33.6875 80.5879 34.5664 80.8893 35.4648 81.1504C35.1719 82.3557 34.918 83.5409 34.6836 84.7663C32.6328 95.9153 34.2344 104.754 39.3516 107.787C44.625 110.921 53.4922 107.707 62.125 99.9329C62.8086 99.3102 63.4922 98.6673 64.1758 97.9843C65.0352 98.8481 65.9336 99.6717 66.832 100.475C75.1914 107.868 83.4531 110.861 88.5508 107.828C93.8242 104.694 95.543 95.1921 93.3164 83.6213C93.1406 82.7374 92.9453 81.8334 92.7305 80.9094C93.3555 80.7286 93.9609 80.5277 94.5664 80.3268C105.836 76.4899 114 70.2827 114 63.9147C114 57.828 106.305 51.9221 95.6797 48.1656ZM69.2539 31.1107C76.5195 24.6021 83.2969 22.0509 86.3828 23.8789C89.6836 25.8275 90.9531 33.7021 88.8828 44.0475C88.7461 44.7305 88.6094 45.3934 88.4336 46.0563C84.0977 45.0519 79.7031 44.3287 75.2891 43.927C72.75 40.1906 69.9766 36.6149 66.9688 33.2601C67.7305 32.5169 68.4727 31.8138 69.2539 31.1107ZM46.6562 74.3405C47.6523 76.0882 48.668 77.8359 49.7422 79.5434C46.6953 79.2019 43.668 78.6997 40.6797 78.0367C41.5391 75.144 42.6133 72.1509 43.8633 69.0975C44.7617 70.8652 45.6797 72.6129 46.6562 74.3405ZM40.7383 50.1744C43.5508 49.5316 46.5391 49.0093 49.6445 48.6075C48.6094 50.2748 47.5938 51.9823 46.6367 53.7099C45.6797 55.4174 44.7422 57.1651 43.8633 58.9329C42.6328 55.9397 41.5977 53.0068 40.7383 50.1744ZM46.0898 64.0152C47.3789 61.243 48.7852 58.5311 50.2695 55.8594C51.7539 53.1876 53.3555 50.5962 55.0352 48.045C57.9648 47.8241 60.9531 47.7035 64 47.7035C67.0469 47.7035 70.0547 47.8241 72.9648 48.045C74.625 50.5762 76.207 53.1675 77.7109 55.8192C79.2148 58.4708 80.6211 61.1827 81.9492 63.9348C80.6406 66.707 79.2344 69.439 77.7305 72.1308C76.2461 74.8025 74.6641 77.3939 73.0039 79.9652C70.0938 80.1862 67.0664 80.2866 64 80.2866C60.9336 80.2866 57.9648 80.1862 55.0938 80.0054C53.3945 77.4542 51.793 74.8427 50.2891 72.171C48.7852 69.4993 47.3984 66.7873 46.0898 64.0152ZM81.3633 74.3003C82.3594 72.5326 83.2969 70.7447 84.2148 68.9368C85.4648 71.8496 86.5586 74.8025 87.5156 77.8359C84.4883 78.5389 81.4219 79.0813 78.3359 79.4429C79.3906 77.7555 80.3867 76.0279 81.3633 74.3003ZM84.1758 58.9329C83.2578 57.1651 82.3203 55.3973 81.3438 53.6697C80.3867 51.9622 79.3906 50.2748 78.3555 48.6075C81.5 49.0093 84.5078 49.5517 87.3203 50.2146C86.4219 53.1876 85.3672 56.0803 84.1758 58.9329ZM64.0391 36.3336C66.0898 38.6237 68.0234 41.0343 69.8203 43.5252C65.9531 43.3444 62.0664 43.3444 58.1992 43.5252C60.1133 40.9338 62.0859 38.5232 64.0391 36.3336ZM41.3828 24.0195C44.6641 22.0509 51.9492 24.8632 59.625 31.8539C60.1133 32.2959 60.6016 32.778 61.1094 33.2601C58.082 36.6149 55.2891 40.1906 52.7305 43.927C48.3164 44.3287 43.9414 45.0318 39.6055 46.0161C39.3516 44.9916 39.1367 43.947 38.9219 42.9025C37.0859 33.1798 38.2969 25.8476 41.3828 24.0195ZM36.5977 76.9721C35.7773 76.731 34.9766 76.4699 34.1758 76.1886C30.0156 74.8427 25.2891 72.7134 21.8711 69.9211C19.8984 68.5149 18.5703 66.3454 18.1992 63.9147C18.1992 60.2386 24.3711 55.5379 33.2773 52.3439C34.3906 51.9422 35.5234 51.5806 36.6562 51.2391C37.9844 55.5982 39.5859 59.877 41.4414 64.0152C39.5664 68.2136 37.9453 72.5527 36.5977 76.9721ZM59.3711 96.6585C56.1484 99.6918 52.418 102.102 48.3555 103.75C46.1875 104.814 43.6875 104.915 41.4609 104.011C38.3555 102.163 37.0664 95.0715 38.8242 85.5296C39.0391 84.4047 39.2734 83.2798 39.5469 82.1749C43.9219 83.1391 48.3359 83.8021 52.8086 84.1436C55.3867 87.9001 58.2188 91.4958 61.2461 94.8707C60.6211 95.4934 59.9961 96.096 59.3711 96.6585ZM64.1562 91.7771C62.1641 89.5674 60.1719 87.1166 58.2383 84.4851C60.1133 84.5654 62.0469 84.6056 64 84.6056C66.0117 84.6056 67.9844 84.5654 69.9375 84.465C68.1406 87.0162 66.207 89.4468 64.1562 91.7771ZM89.6836 97.8035C89.5078 100.254 88.3359 102.544 86.4609 104.091C83.3555 105.939 76.7344 103.529 69.5859 97.221C68.7656 96.4978 67.9453 95.7144 67.1055 94.9108C70.0938 91.5159 72.8477 87.9201 75.3477 84.1436C79.8203 83.7619 84.2734 83.0588 88.668 82.0343C88.8633 82.8579 89.0391 83.6815 89.1953 84.4851C90.1523 88.8241 90.3086 93.344 89.6836 97.8035ZM93.2383 76.2087C92.6914 76.3895 92.1445 76.5703 91.5781 76.731C90.2109 72.3518 88.5312 68.073 86.5977 63.9147C88.4727 59.8167 90.0547 55.5982 91.3828 51.2792C92.3984 51.5806 93.375 51.902 94.3125 52.2234C103.414 55.4375 109.801 60.2185 109.801 63.8745C109.801 67.8118 102.984 72.8942 93.2383 76.2087ZM64 73.1955C68.9414 73.1955 72.9453 69.0774 72.9453 63.9951C72.9453 58.9128 68.9414 54.7947 64 54.7947C59.0586 54.7947 55.0547 58.9128 55.0547 63.9951C55.0547 69.0774 59.0586 73.1955 64 73.1955Z" fill="white"/>
</svg>
